<svg width="28" height="28" viewBox="0 0 28 28" fill="none" xmlns="http://www.w3.org/2000/svg">
<path d="M22.2687 7C22.8374 7 23.2312 7.525 23.0999 8.09375C22.3562 10.9812 19.8624 18.6813 14.3062 18.6813H11.9437C5.73115 18.6813 3.63115 9.275 3.63115 9.275L1.61865 7H22.2687Z" stroke="#F7F5F3" stroke-width="2" stroke-miterlimit="10" stroke-linecap="round" stroke-linejoin="round"/>
<path d="M22.6625 9.66869C22.6625 9.66869 24.2812 7.34994 25.725 8.44369C27.1687 9.53744 26.7313 13.6937 18.5938 16.8874" stroke="#F7F5F3" stroke-width="2" stroke-miterlimit="10" stroke-linecap="round" stroke-linejoin="round"/>
<path d="M24.1937 18.6813L19.6437 20.1688C19.6437 20.6063 19.2062 20.9563 18.6812 20.9563H7.96245C7.43745 21 6.99995 20.65 6.99995 20.2125L2.88745 18.725H24.1937V18.6813Z" stroke="#F7F5F3" stroke-width="2" stroke-miterlimit="10" stroke-linecap="round" stroke-linejoin="round"/>
</svg>
