<?xml version="1.0" encoding="UTF-8"?>
<svg id="Calque_2" xmlns="http://www.w3.org/2000/svg" viewBox="0 0 432 432">
  <defs>
    <style>
      .cls-1, .cls-2 {
        fill: #fff;
      }

      .cls-1, .cls-3 {
        stroke: #fff;
        stroke-miterlimit: 10;
      }

      .cls-4, .cls-3 {
        fill: none;
      }

      .cls-3 {
        stroke-width: 4px;
      }
    </style>
  </defs>
  <g id="Calque_6">
    <path class="cls-1" d="M228.77,287.31l-16.24,13.14,2.76,18.36s.02.12.06.33c.14.81.5,3,.93,5.83s.86,5.94,1.22,9.11c.8,7.01,1.13,13.59-.6,12.65l9.19.18,2.53-57.56"/>
    <path class="cls-1" d="M218.29,341.1c.4.77-.72-3.72-.72-3.72l-2.88,7.86.63,1.11,2.12.39,2.36-16.1-2.56-10.11h-1.93s-1.92,3.51-1.92,3.51l.8,3.23,2.41,2.06,4.03.36"/>
    <path class="cls-2" d="M48.22,282.92c1.46-3.94,5.03-6.8,8.49-8.94,5.08-3.14,10.76-5.24,16.45-6.99,15.23-4.69,31.2-6.99,47-8.74,16.33-1.81,32.75-2.85,49.17-3.47,6.53-.25,13.06-.42,19.59-.52,2.56-.04,5.13-.07,7.69-.09,3.16-.02,6.34.19,8.84-2.15,4.55-4.26,1.71-12.15,0-17.24-2.04-6.1-5.09-11.81-9.07-16.86-12.36-15.66-31.63-21.58-50.72-23.86-23.34-2.78-47.09-1.76-70.39.88-15.06,1.7-30.08,4.07-44.89,7.33-1.03.23-2.06.45-3.09.7-.15.04.84-.17-.24.04-.46.09-.92.2-1.37.35-2.39.79-4.53,2.21-6.4,3.88-3.28,2.94-5.72,6.79-7.56,10.76-3.13,6.74-4.81,14.07-5.83,21.4-1.65,11.84-1.66,23.86-.98,35.77,1.03,18.06,3.67,36.03,7,53.8,2.21,11.77,4.75,23.47,7.52,35.12,1.56,6.56,3.2,13.1,4.9,19.63.92,3.53,1.86,7.06,2.81,10.58.72,2.64,1.17,5.49,3.26,7.43s4.44,2.07,6.96,2.34l8.28.88c10.14,1.08,20.29,2.16,30.43,3.24,13.85,1.48,27.71,2.95,41.56,4.43,14.59,1.56,29.19,3.11,43.78,4.67,12.36,1.32,24.72,2.64,37.09,3.95,7.17.76,14.35,1.53,21.52,2.29,7.18.77,14.36,1.53,21.54,2.3,3.73.4,8.18,1.54,11.91.72,2.19-.48,4.36-1.05,6.54-1.58,10.97-2.64,21.94-5.29,32.9-7.93,14.2-3.42,28.41-6.85,42.61-10.27,10.97-2.64,21.93-5.29,32.9-7.93,2.23-.54,4.47-1.04,6.69-1.61,4.2-1.08,6.14-5.1,8.3-8.49,7.15-11.21,13.71-22.81,19.64-34.71,8.1-16.24,15.14-33.16,19.74-50.74,4.39-16.78,6.8-34.85,2.97-51.98-.88-3.95-2.13-7.8-3.74-11.51-1.17-2.7-2.38-5.5-4.63-7.47-2.13-1.87-4.39-3.6-6.7-5.24-8.81-6.27-18.55-11.2-28.63-15.07-15.77-6.05-32.54-9.33-49.38-10.3-23.74-1.37-47.62,1.87-70.54,8.01-1.7.46-3.32.85-5.07.97-.41.03-.83.08-1.23.16-.89.18-1.74.5-2.56.9-2.47,1.19-4.52,3.19-6.22,5.3-3.15,3.93-5.39,8.48-7.29,13.13-3.11,7.62-5.22,15.64-6.95,23.68-2.72,12.65-4.44,25.51-5.75,38.38-1.89,18.63-2.83,37.34-3.33,56.05-.65,24.77-.47,49.56.15,74.33.05,1.93,3.05,1.93,3,0-.63-25.25-.81-50.52-.11-75.77.51-18.3,1.45-36.6,3.31-54.81,1.28-12.58,2.98-25.15,5.65-37.51,1.7-7.91,3.78-15.8,6.83-23.31.93-2.29,2.13-4.88,3.44-7.21.55-.97,1.12-1.92,1.74-2.85.27-.41.55-.81.84-1.2.45-.62.29-.4.65-.85.96-1.17,1.99-2.25,3.14-3.23.52-.44-.07.01.47-.36.23-.16.46-.32.69-.47.43-.27.87-.5,1.32-.73.56-.28-.13.02.28-.12.19-.07.37-.14.56-.2.34-.11.68-.18,1.02-.26.51-.12-.08,0,.07-.02.13,0,.26-.03.39-.03,2.36-.03,4.54-.75,6.82-1.35,22.61-5.96,46.08-9.03,69.47-7.57,16.56,1.03,33,4.38,48.47,10.41,9.71,3.78,19.08,8.65,27.55,14.73,2.12,1.52,3.98,2.94,5.97,4.72,2.34,2.09,3.58,5.62,4.69,8.49,1.47,3.8,2.54,7.74,3.27,11.74,3.12,17.15.11,35.05-4.61,51.61-4.87,17.1-11.93,33.54-20.01,49.34-5.72,11.19-11.99,22.12-18.8,32.69-.98,1.52-1.93,3.46-3.3,4.67-.9.8-1.93,1.05-3.04,1.32l-8.24,1.99c-11.38,2.74-22.75,5.49-34.13,8.23-14.01,3.38-28.01,6.75-42.02,10.13-10.35,2.5-20.7,4.99-31.05,7.49-1.89.46-3.79,1.01-5.7,1.37-1.37.26-2.76.01-4.13-.13l-9.09-.97c-6.56-.7-13.12-1.4-19.69-2.1-7.23-.77-14.45-1.54-21.68-2.31-12.24-1.31-24.49-2.61-36.73-3.92-14.34-1.53-28.68-3.06-43.02-4.59s-27.44-2.92-41.16-4.39c-10.15-1.08-20.29-2.16-30.44-3.24l-8.66-.92c-1.65-.18-3.53-.15-4.94-1.13-2.54-1.76-2.84-5.96-3.58-8.72-.91-3.37-1.8-6.75-2.68-10.14-1.68-6.48-3.29-12.98-4.83-19.49-2.69-11.38-5.15-22.82-7.29-34.31-3.24-17.43-5.8-35.03-6.77-52.74-.64-11.59-.67-23.36.98-34.88,1-6.97,2.68-14.3,5.58-20.47,1.89-4.02,3.9-7.18,7.09-10,.28-.25.56-.48.85-.72.2-.16-.22.15.17-.13.14-.1.27-.2.41-.29.5-.35,1.02-.68,1.55-.98.43-.24.88-.46,1.33-.66-.51.23.48-.18.79-.28.41-.13.82-.21,1.24-.3-.82.17.06,0,.34-.07,1.14-.24,2.28-.52,3.42-.77,14.94-3.26,30.1-5.65,45.3-7.31,22.96-2.5,46.36-3.43,69.34-.61,18.66,2.28,37.65,8.5,49.08,24.39,3.57,4.96,6.22,10.52,7.92,16.38.65,2.25,1.18,4.55,1.54,6.86.33,2.11-.08,4.15-1.92,5.47-1.43,1.02-3.06.92-4.72.93-12.2.06-24.41.38-36.6.94-16.51.77-33.03,1.99-49.43,4.1-14.91,1.92-30.06,4.33-44.28,9.37-8.41,2.98-19.19,7.45-22.55,16.54-.67,1.81,2.23,2.6,2.89.8h0Z"/>
    <path class="cls-2" d="M253.79,426.4c.66-1.83,1.29-3.67,1.92-5.51,1.71-4.99,3.35-10,4.95-15.02,2.35-7.37,4.59-14.76,6.74-22.19,2.62-9.05,5.08-18.14,7.37-27.28,2.49-9.96,4.77-19.97,6.76-30.05s3.71-20.42,4.96-30.72c1.16-9.57,1.92-19.2,1.92-28.84,0-8.37-.56-16.81-2.33-25.01-1.44-6.67-3.76-13.39-7.79-18.97-3.7-5.12-8.75-9-14.8-10.9-1.5-.47-3.03-.81-4.58-1.05-1.89-.29-2.7,2.6-.8,2.89,6.1.93,11.26,3.49,15.39,7.91,4.23,4.53,6.9,10.52,8.62,16.6,2.16,7.66,2.96,15.53,3.21,23.47.29,9.32-.24,18.65-1.18,27.92-1.01,10.02-2.54,19.98-4.37,29.88-1.86,10.09-4.04,20.12-6.44,30.09-2.24,9.29-4.67,18.53-7.26,27.72-2.2,7.82-4.52,15.62-6.95,23.38-1.74,5.57-3.54,11.13-5.41,16.66-.89,2.63-1.88,5.23-2.72,7.88-.04.12-.08.23-.12.34-.66,1.82,2.24,2.6,2.89.8h0Z"/>
    <path class="cls-2" d="M399.12,231.85c-5.45-2.8-11.61-4.51-17.52-5.98-16.13-4.02-32.95-5.17-49.53-4.34-13.51.67-26.93,2.7-40.1,5.76-.94.22-.54,1.66.4,1.45,21.31-4.95,43.37-7.18,65.22-5.28,11.98,1.04,24.04,3.26,35.35,7.43,1.88.69,3.65,1.36,5.42,2.27.86.44,1.62-.85.76-1.3h0Z"/>
    <path class="cls-3" d="M50.99,272.88c5.61-60.58-23.41-68.43-23.41-68.43"/>
    <path class="cls-2" d="M45.48,281.76c-1.56,2.58-2.59,5.59-3.34,8.49-1.68,6.51-1.66,13.44.29,19.9.61,2.04,1.42,4.03,2.37,5.93.48.97.83,1.9,2,2.05.18.02.36.02.54.03l3.16.19,13.53.82,20.75,1.26c8.45.51,16.89,1.03,25.34,1.54,9.09.55,18.17,1.11,27.26,1.66s17.75,1.08,26.62,1.62l23.06,1.4c5.65.34,11.3.69,16.95,1.03,2.72.17,5.45.42,8.17.5.12,0,.24.01.36.02.68.04,1.25-.5,1.45-1.1,1.38-4.17,2.09-8.7,2.21-13.08s-.17-10.01-3.42-13.33c-2.02-2.07-4.7-3.53-7.28-4.78-3.93-1.92-8.06-3.44-12.22-4.79-11.87-3.85-24.18-6.37-36.48-8.33-15.94-2.53-32.04-4.02-48.16-4.57-18.29-.63-36.63-.05-54.82,1.94-2.35.26-4.69.54-7.03.84-1.89.24-1.91,3.25,0,3,17.85-2.31,35.87-3.24,53.86-2.97,16.27.24,32.56,1.41,48.68,3.66,12.74,1.78,25.45,4.16,37.83,7.7,7.47,2.14,15.55,4.52,21.95,9.09.37.26.17.12.47.36.23.19.46.38.68.59.36.33.7.69,1.01,1.07-.26-.32.11.17.19.3.1.17.2.34.28.52.63,1.39.96,3,1.19,4.5.83,5.45-.03,11.23-1.54,16.49-.1.33-.19.67-.3,1l1.45-1.1c-5.51-.34-11.03-.67-16.54-1.01-13.23-.81-26.47-1.61-39.7-2.42-15.91-.97-31.83-1.94-47.74-2.91-13.82-.84-27.64-1.68-41.45-2.53l-13.58-.83c-2.12-.13-4.33-.46-6.45-.39-.09,0-.19-.01-.28-.02l1.3.74c-3.79-7.04-5.07-15.09-3.47-22.93.67-3.3,1.71-6.75,3.47-9.66,1-1.66-1.59-3.17-2.59-1.51Z"/>
    <path class="cls-2" d="M213.05,302.1c3.65-2.3,7.29-4.61,10.94-6.91.51-.32,1.02-.65,1.53-.97,1.63-1.03.12-3.63-1.51-2.59-3.65,2.3-7.29,4.61-10.94,6.91-.51.32-1.02.65-1.53.97-1.63,1.03-.12,3.63,1.51,2.59h0Z"/>
    <path class="cls-2" d="M202.43,254.19c9.15.65,18.3,1.31,27.45,1.96,1.32.09,2.64.19,3.96.28,1.93.14,1.92-2.86,0-3-9.15-.65-18.3-1.31-27.45-1.96-1.32-.09-2.64-.19-3.96-.28-1.93-.14-1.92,2.86,0,3h0Z"/>
    <path class="cls-2" d="M187.55,210.28c.59-3.2,1.53-6.36,2.5-9.45,2.47-7.87,5.55-15.2,9.4-22.48,5.22-9.88,11.65-19.12,19.34-27.22,9.21-9.71,20.15-17.64,32.29-23.28,15.47-7.18,32.49-10.32,49.47-10.63s33.95,2.04,48.92,9.86c10.29,5.37,19.09,13.24,25.41,22.98,4.87,7.5,8.21,15.68,10.27,24.37.39,1.65.73,3.3,1.02,4.97.13.73.24,1.45.35,2.18.02.16.04.31.07.47.06.43.02.11.03.21.04.32.08.64.12.97.2,1.66.35,3.32.4,4.99.05,1.87-.25,3.77-.39,5.62-.47,5.95-.95,11.9-1.42,17.84-.1,1.25-.2,2.51-.3,3.76-.04.49.31,1.07.74,1.3,5.98,3.1,11.95,6.19,17.93,9.29.86.44,1.93.07,2.2-.9.67-2.38,1.11-4.85,1.51-7.28,1.04-6.32,1.57-12.72,1.63-19.12.08-8.92-.79-17.86-2.64-26.59-2-9.4-4.89-18.83-10.63-26.66-10.14-13.81-26.01-22.42-42.26-26.88-5.75-1.58-11.62-2.75-17.54-3.5-3.03-.38-6.1-.5-9.14-.71-7.44-.52-14.95-.23-22.41-.24h-.95c-1.93,0-1.93,3,0,3,3.54,0,7.09,0,10.63.01,3.25,0,6.54-.12,9.78.02,7.67.34,14.77,1.07,22.2,2.68,15.96,3.46,31.54,10.17,42.94,22.19,2.93,3.09,5.5,6.52,7.56,10.26,2.35,4.26,3.87,8.88,5.18,13.54,2.49,8.86,3.86,18.02,4.2,27.21.25,6.91-.05,13.86-.96,20.71-.45,3.41-1.19,6.74-1.88,10.1-.03.15-.08.3-.12.45l2.2-.9c-5.98-3.1-11.95-6.19-17.93-9.29l.74,1.3c.34-4.32.69-8.65,1.03-12.97.36-4.55.95-9.14,1.09-13.7.11-3.5-.54-7.16-1.15-10.59-1.48-8.28-4.2-16.38-8.11-23.83-5.25-10-12.79-18.66-22.05-25.13-12.52-8.75-27.58-13.01-42.65-14.45-18.52-1.77-37.85.01-55.5,6.03-13.56,4.62-26.11,11.85-36.87,21.32-9.01,7.94-16.68,17.37-22.92,27.62-4.87,8-8.89,16.52-12.05,25.33-1.61,4.5-3.05,9.09-4.04,13.77-.05.21-.09.43-.13.64-.35,1.89,2.54,2.7,2.89.8h0Z"/>
    <path class="cls-2" d="M46.02,316.69c-2.48,2.29-3.96,5.9-4.03,9.23s1.27,6.51,3.22,9.13c.51.68.99,1.07,1.81,1.14,2.39.2,4.8.32,7.2.48,5.22.35,10.44.69,15.66,1.04,7.2.48,14.4.96,21.59,1.43,8.4.56,16.8,1.12,25.21,1.67,8.82.59,17.63,1.17,26.45,1.76l25.31,1.68c7.3.48,14.59.97,21.89,1.45l15.87,1.05c2.53.17,5.07.43,7.6.5.11,0,.22.01.33.02.51.03,1.05-.31,1.3-.74.51-.91.7-2.14.93-3.13.49-2.08.85-4.21.99-6.35.29-4.4-.48-9.93-5.04-11.91-1.75-.76-3.28,1.82-1.51,2.59,3.73,1.62,3.8,6.33,3.52,9.81-.15,1.77-.47,3.51-.88,5.24-.15.61-.31,1.22-.49,1.83-.08.27-.46,1.04-.1.41l1.3-.74c-5.57-.37-11.14-.74-16.71-1.11-13.29-.88-26.57-1.76-39.86-2.65l-48.45-3.22-41.68-2.77-13.87-.92c-2.13-.14-4.35-.49-6.49-.43-.09,0-.19-.01-.28-.02l1.3.74c-2.48-3.24-3.92-7.07-2.52-11.07.56-1.59,1.42-2.98,2.57-4.04,1.42-1.31-.7-3.43-2.12-2.12h0Z"/>
    <path class="cls-2" d="M45.65,346.1v54.42c0,1.45,2.25,1.45,2.25,0v-54.42c0-1.45-2.25-1.45-2.25,0h0Z"/>
    <path class="cls-2" d="M49.87,212.83c.46-.54.6-.56,1.25-.97,1.6-1.01,3.34-1.69,5.14-2.27,9.2-2.97,19.31-3.26,28.88-3.18,10.33.08,20.65.94,30.91,2.14.96.11.95-1.39,0-1.5-15.75-1.84-31.94-3.17-47.76-1.38-5.87.66-12.38,1.61-17.57,4.66-.66.39-1.41.83-1.91,1.42-.62.73.43,1.8,1.06,1.06h0Z"/>
    <path class="cls-1" d="M323.72,115.66s20.61,2.97,27.34,5.22c3.84,1.28,44.54,16.85,39.1,20.2-5.44,3.35,14.24-7.22,17.32,52.88.8,15.54-8.18,27.88-3.03,30.77,2.96,1.66-17.93-9.29-17.93-9.29l2.69-33.98s-3.37-11.22-11.22-28.04c-6.79-14.55,4.49,0,4.49,0l-14.47-15.19c-5.25-5.51-11.65-9.8-18.73-12.58l-25.55-9.98Z"/>
    <line class="cls-3" x1="49.34" y1="278.17" x2="51.71" y2="262.02"/>
    <path class="cls-1" d="M76.66,54.38c.08-.16.15-.32.2-.49.77-2.45,7.28-22.47,16.75-26.68,2.52-1.12,2.57-4.35,3.37-6.73,1.08-3.24,2.89-5.47,5.33-7.61,1.89-1.66,5.33-3.89,7.58-5.02l1.6-.8c.17.15.09-.08.07.05-.01.08-5.6,22.36,0,23.48,5.6,1.12,11.17,5.6,15.68,2.24s.03,0,.03,0c0,0,16.82-12.33,17.94-12.33s-6.73,12.34-6.73,13.46c0,1.12,0,0,0,0,0,0-2.24,4.5-2.24,7.85,0,3.36.74,12.33.74,12.33,0,0,0,0,0,0,0,0,2.62,8.96,1.5,12.33-1.12,3.37,0,0,0,.01-.03.13-1.2,5.69-7.85,12.34-6.73,6.73,1.12,19.07,1.12,19.07,0,0,4.49,8.97,12.34,17.95,7.34,8.39,9.78,19.73,10.07,21.16.02.11.05.22.08.33l4.38,14.24c.03.12.06.23.09.35.35,1.8,3.12,16.55-.04,23.11-3.37,6.99-3.37,20.45-5.61,21.58,0-3.37,3.37,16.83,26.92,14.58,23.56-2.24,37.02-34.78,37.02-34.78,0,0,11.75-31.34-.43-42.78-.86-.8-1.83-1.51-2.93-2.1-16.83-8.97-65.06-30.29-38.14-67.31,19.15-26.34,37.17-15.2,45.97-6.58,3.56,3.49,5.58,8.25,5.63,13.23,0,.13,0,.26-.02.39,0,0,0,10.94-1.12,13.17-1.11,2.23-6.72,7.84-12.33,6.72-6.73-1.12-4.61-16.79-4.5-18.83.01-.13.03-.25.04-.38.22-1.23,1.33-9.79-10.12-7.71-12.34,2.24-13.46,16.83-13.46,16.83,0,0-3.37,14.58,12.34,21.31,15.7,6.73,23.56,10.1,29.17,15.7,5.61,5.61,13.46,22.44,13.46,26.92s4.49,22.44-2.24,37.02c-6.73,14.58-17.3,25.74-22.67,29.7-5.37,3.96-14.34,14.05-42.39,12.93-24.54-.98-33.62-7.98-35.5-9.71-.29-.26-.61-.48-.97-.63l-6.82-2.92c-.32-.09-.64-.17-.96-.26-2-.23-9.57-1.06-16.32-1.06-7.16,0-18.98.93-21.01,1.1-.21,0-.41,0-.61,0l-14.07-1.36c-.14-.02-.27-.04-.41-.06l-7.81-1.7c-.67-.15-1.29-.48-1.76-.98-1.84-1.92-5.92-7.1-1.45-11.57,4.53-4.53,6.86-4.67,7.59-4.56.04,0,.06-.05.03-.07-1.37-.84-8.43-5.48-9.64-12.39-1.33-7.6-6.86-15.38,1.8-40.68.14-.41.21-.85.18-1.29-.32-6.23-2.39-55.8,11.13-82.12Z"/>
    <g>
      <path class="cls-2" d="M364.85,254.32s-4.77,49.22,26.49,69.39c3.85,1.41-37.32-13.77-37.93,53.3-1.21,10.06-2.47-41.77-34.08,8.8.29-1.28,17.7-34.14-7.59-17.7,0,0,41.72-42.99,54.37-121.37"/>
      <path class="cls-4" d="M311.75,368.11s41.72-39.19,53.1-113.79"/>
    </g>
  </g>
</svg>